# xmcd
# Track frame offsets:
# 150
# 17326
# 36230
# 52078
# 66918
# 79503
#
# Disc length: 1195 seconds
# Revision: 0
# Processed by: cddbd v1.4PL0 Copyright (c) Steve Scherf et al.
# Submitted via: VisiTrax 2.9.5.181 - For more info visit www.synapsa.com
#
DISCID=4404a906
DTITLE=Daniel Eriksen and the Blue Devils - Live....Opening for god
DYEAR=2001
DGENRE=Blues
TTITLE0=Hug and squeeze
TTITLE1=Crossroads
TTITLE2=Dust my broom
TTITLE3=Rolli´and tumblin
TTITLE4=Goin´down to Chickasaw
TTITLE5=Up jumped Daniel
EXTD=
EXTT0=
EXTT1=
EXTT2=
EXTT3=
EXTT4=
EXTT5=
PLAYORDER=
